<svg xmlns="http://www.w3.org/2000/svg" xmlns:xlink="http://www.w3.org/1999/xlink" width="113" zoomAndPan="magnify" viewBox="0 0 84.75 56.999997" height="76" preserveAspectRatio="xMidYMid meet" version="1.0"><defs><g/><clipPath id="2ac718f9e4"><path d="M 19.449219 2.289062 L 64.910156 2.289062 L 64.910156 47.75 L 19.449219 47.75 Z M 19.449219 2.289062 " clip-rule="nonzero"/></clipPath></defs><g clip-path="url(#2ac718f9e4)"><path fill="#000000" d="M 39.578125 45.160156 C 30.445312 43.992188 23.222656 36.765625 22.050781 27.632812 C 22.042969 27.585938 22.003906 27.550781 21.957031 27.550781 L 20.144531 27.550781 C 19.761719 27.550781 19.453125 27.246094 19.453125 26.863281 L 19.453125 23.183594 C 19.453125 22.804688 19.761719 22.496094 20.144531 22.496094 L 21.957031 22.496094 C 22.003906 22.496094 22.042969 22.460938 22.050781 22.417969 C 23.21875 13.28125 30.445312 6.058594 39.578125 4.886719 C 39.625 4.882812 39.660156 4.84375 39.660156 4.796875 L 39.660156 2.980469 C 39.660156 2.601562 39.964844 2.292969 40.347656 2.292969 L 44.027344 2.292969 C 44.40625 2.292969 44.714844 2.601562 44.714844 2.980469 L 44.714844 4.796875 C 44.714844 4.84375 44.75 4.882812 44.792969 4.886719 C 53.929688 6.058594 61.152344 13.28125 62.324219 22.417969 C 62.328125 22.460938 62.367188 22.496094 62.414062 22.496094 L 64.230469 22.496094 C 64.609375 22.496094 64.917969 22.804688 64.917969 23.183594 L 64.917969 26.863281 C 64.917969 27.242188 64.609375 27.550781 64.230469 27.550781 L 62.414062 27.550781 C 62.367188 27.550781 62.328125 27.585938 62.324219 27.632812 C 61.152344 36.765625 53.929688 43.992188 44.792969 45.160156 C 44.75 45.167969 44.714844 45.207031 44.714844 45.253906 L 44.714844 47.066406 C 44.714844 47.449219 44.40625 47.757812 44.027344 47.757812 L 40.347656 47.757812 C 39.96875 47.757812 39.660156 47.449219 39.660156 47.066406 L 39.660156 45.253906 C 39.660156 45.207031 39.625 45.167969 39.578125 45.160156 Z M 23.4375 27.65625 C 23.984375 31.601562 25.753906 35.160156 28.347656 37.9375 C 28.382812 37.976562 28.441406 37.976562 28.480469 37.9375 L 35.730469 30.589844 C 35.757812 30.5625 35.765625 30.523438 35.75 30.488281 C 35.277344 29.4375 35.21875 28.632812 35.164062 27.523438 C 35.160156 27.472656 35.121094 27.433594 35.070312 27.433594 L 32.410156 27.433594 C 32.382812 27.433594 32.359375 27.445312 32.339844 27.46875 L 30.445312 29.742188 C 30.203125 30.035156 29.769531 30.074219 29.480469 29.832031 C 29.1875 29.589844 29.148438 29.15625 29.390625 28.867188 L 31.523438 26.308594 C 31.660156 26.144531 31.851562 26.058594 32.050781 26.058594 L 35.019531 26.058594 C 35.070312 26.058594 35.113281 26.015625 35.113281 25.964844 L 35.117188 24.085938 C 35.117188 24.03125 35.074219 23.992188 35.023438 23.992188 L 32.050781 23.992188 L 32.050781 23.988281 C 31.851562 23.988281 31.65625 23.90625 31.523438 23.742188 L 29.390625 21.183594 C 29.148438 20.890625 29.1875 20.460938 29.480469 20.21875 C 29.769531 19.976562 30.203125 20.015625 30.445312 20.304688 L 32.339844 22.582031 C 32.359375 22.601562 32.382812 22.613281 32.410156 22.613281 L 35.082031 22.613281 C 35.128906 22.613281 35.171875 22.578125 35.171875 22.527344 C 35.1875 22.25 35.203125 21.972656 35.226562 21.695312 C 35.378906 19.535156 36.605469 17.660156 38.425781 16.636719 C 38.480469 16.605469 38.488281 16.53125 38.441406 16.492188 L 36.84375 15.015625 C 36.699219 14.878906 36.625 14.695312 36.625 14.507812 L 36.621094 14.507812 L 36.621094 11.382812 C 36.621094 11.003906 36.929688 10.695312 37.3125 10.695312 C 37.691406 10.695312 38 11.003906 38 11.382812 L 38 14.167969 C 38 14.195312 38.007812 14.21875 38.027344 14.234375 L 39.929688 15.992188 C 39.953125 16.011719 39.980469 16.019531 40.011719 16.011719 C 40.957031 15.785156 42.078125 15.800781 43.054688 15.832031 C 43.507812 15.84375 43.945312 15.90625 44.367188 16.007812 C 44.398438 16.015625 44.425781 16.007812 44.449219 15.984375 L 46.34375 14.234375 C 46.363281 14.21875 46.375 14.195312 46.375 14.167969 L 46.375 11.382812 C 46.375 11.003906 46.683594 10.695312 47.0625 10.695312 C 47.441406 10.695312 47.75 11.003906 47.75 11.382812 L 47.75 14.507812 C 47.75 14.695312 47.675781 14.878906 47.527344 15.015625 L 45.9375 16.484375 C 45.890625 16.527344 45.902344 16.601562 45.957031 16.632812 C 46.667969 17.03125 47.296875 17.566406 47.808594 18.203125 C 47.84375 18.246094 47.90625 18.25 47.945312 18.210938 L 54.917969 11.144531 C 54.953125 11.109375 54.953125 11.046875 54.914062 11.011719 C 52.164062 8.511719 48.675781 6.8125 44.820312 6.273438 C 44.761719 6.265625 44.714844 6.308594 44.714844 6.367188 L 44.714844 7.183594 C 44.714844 7.410156 44.628906 7.539062 44.503906 7.683594 L 42.703125 9.738281 C 42.425781 10.054688 41.9375 10.046875 41.664062 9.734375 L 39.832031 7.636719 C 39.714844 7.507812 39.660156 7.34375 39.660156 7.183594 L 39.660156 6.367188 C 39.660156 6.308594 39.609375 6.265625 39.554688 6.273438 C 31.210938 7.433594 24.597656 14.046875 23.4375 22.390625 C 23.429688 22.449219 23.472656 22.496094 23.527344 22.496094 L 24.347656 22.496094 C 24.574219 22.496094 24.699219 22.582031 24.84375 22.707031 L 26.902344 24.507812 C 27.21875 24.785156 27.210938 25.273438 26.894531 25.546875 L 24.800781 27.378906 C 24.667969 27.496094 24.507812 27.550781 24.347656 27.550781 L 23.527344 27.550781 C 23.472656 27.550781 23.429688 27.601562 23.4375 27.65625 Z M 44.820312 43.773438 C 53.164062 42.613281 59.777344 36 60.9375 27.65625 C 60.945312 27.601562 60.902344 27.550781 60.84375 27.550781 L 60.027344 27.550781 C 59.800781 27.550781 59.671875 27.46875 59.527344 27.339844 L 57.472656 25.542969 C 57.15625 25.265625 57.164062 24.777344 57.476562 24.503906 L 59.574219 22.667969 C 59.703125 22.554688 59.867188 22.5 60.027344 22.5 L 60.027344 22.496094 L 60.84375 22.496094 C 60.902344 22.496094 60.945312 22.449219 60.9375 22.390625 C 60.386719 18.449219 58.621094 14.890625 56.027344 12.113281 C 55.992188 12.074219 55.929688 12.074219 55.894531 12.109375 L 48.605469 19.496094 L 48.605469 19.5 L 36.507812 31.761719 L 36.507812 31.757812 L 29.457031 38.902344 C 29.417969 38.941406 29.421875 39 29.460938 39.035156 C 32.210938 41.535156 35.699219 43.238281 39.554688 43.773438 C 39.609375 43.78125 39.660156 43.738281 39.660156 43.683594 L 39.660156 42.863281 C 39.660156 42.636719 39.742188 42.511719 39.871094 42.367188 L 41.667969 40.308594 C 41.945312 39.992188 42.433594 40 42.707031 40.316406 L 44.542969 42.410156 C 44.65625 42.542969 44.710938 42.703125 44.710938 42.863281 L 44.714844 42.863281 L 44.714844 43.683594 C 44.714844 43.738281 44.765625 43.78125 44.820312 43.773438 Z M 39.925781 34.058594 C 39.949219 34.039062 39.980469 34.03125 40.011719 34.039062 C 40.425781 34.136719 40.855469 34.199219 41.300781 34.214844 C 42.285156 34.246094 43.410156 34.269531 44.367188 34.039062 C 44.394531 34.03125 44.425781 34.039062 44.449219 34.0625 L 46.34375 35.8125 C 46.363281 35.832031 46.375 35.855469 46.375 35.878906 L 46.375 38.664062 C 46.375 39.046875 46.683594 39.355469 47.0625 39.355469 C 47.441406 39.355469 47.75 39.046875 47.75 38.664062 L 47.75 35.539062 C 47.75 35.355469 47.675781 35.171875 47.527344 35.035156 L 45.9375 33.566406 C 45.890625 33.523438 45.898438 33.449219 45.953125 33.417969 C 47.792969 32.386719 49.027344 30.488281 49.164062 28.304688 C 49.183594 28.042969 49.195312 27.785156 49.210938 27.523438 C 49.210938 27.472656 49.25 27.433594 49.300781 27.433594 L 51.960938 27.433594 C 51.988281 27.433594 52.011719 27.445312 52.03125 27.46875 L 53.929688 29.742188 C 54.171875 30.035156 54.601562 30.074219 54.894531 29.832031 C 55.183594 29.589844 55.226562 29.15625 54.984375 28.867188 L 52.851562 26.308594 C 52.714844 26.144531 52.519531 26.058594 52.324219 26.058594 L 49.351562 26.058594 C 49.300781 26.058594 49.257812 26.015625 49.257812 25.964844 L 49.261719 24.085938 C 49.261719 24.035156 49.300781 23.992188 49.351562 23.992188 L 52.324219 23.992188 L 52.324219 23.988281 C 52.519531 23.988281 52.714844 23.90625 52.851562 23.742188 L 54.984375 21.183594 C 55.226562 20.890625 55.183594 20.460938 54.894531 20.21875 C 54.601562 19.976562 54.171875 20.015625 53.929688 20.304688 L 52.03125 22.582031 C 52.011719 22.601562 51.988281 22.613281 51.960938 22.613281 L 49.304688 22.613281 C 49.253906 22.613281 49.214844 22.574219 49.210938 22.527344 C 49.191406 22.074219 49.171875 21.605469 49.105469 21.160156 C 49.09375 21.085938 49 21.054688 48.949219 21.109375 L 37.53125 32.679688 C 37.492188 32.71875 37.496094 32.78125 37.539062 32.816406 C 37.8125 33.039062 38.109375 33.238281 38.421875 33.414062 C 38.476562 33.445312 38.484375 33.519531 38.4375 33.5625 L 36.84375 35.035156 C 36.699219 35.171875 36.625 35.355469 36.625 35.539062 L 36.621094 35.539062 L 36.621094 38.664062 C 36.621094 39.046875 36.929688 39.355469 37.3125 39.355469 C 37.691406 39.355469 38 39.046875 38 38.664062 L 38 35.878906 C 38 35.855469 38.007812 35.832031 38.027344 35.8125 Z M 39.925781 34.058594 " fill-opacity="1" fill-rule="evenodd"/></g><g fill="#000000" fill-opacity="1"><g transform="translate(26.696265, 53.497469)"><g><path d="M 0.171875 -1.65625 C 0.171875 -1.882812 0.203125 -2.101562 0.265625 -2.3125 C 0.328125 -2.519531 0.414062 -2.703125 0.53125 -2.859375 C 0.65625 -3.023438 0.804688 -3.15625 0.984375 -3.25 C 1.171875 -3.34375 1.382812 -3.390625 1.625 -3.390625 C 1.78125 -3.390625 1.914062 -3.363281 2.03125 -3.3125 C 2.144531 -3.269531 2.253906 -3.207031 2.359375 -3.125 L 2.359375 -2.625 L 2.3125 -2.625 C 2.3125 -2.707031 2.296875 -2.789062 2.265625 -2.875 C 2.234375 -2.957031 2.179688 -3.03125 2.109375 -3.09375 C 2.046875 -3.164062 1.972656 -3.222656 1.890625 -3.265625 C 1.816406 -3.304688 1.734375 -3.328125 1.640625 -3.328125 C 1.441406 -3.328125 1.265625 -3.28125 1.109375 -3.1875 C 0.960938 -3.09375 0.835938 -2.960938 0.734375 -2.796875 C 0.640625 -2.640625 0.566406 -2.460938 0.515625 -2.265625 C 0.460938 -2.078125 0.4375 -1.875 0.4375 -1.65625 C 0.4375 -1.445312 0.460938 -1.242188 0.515625 -1.046875 C 0.566406 -0.859375 0.640625 -0.679688 0.734375 -0.515625 C 0.835938 -0.359375 0.960938 -0.234375 1.109375 -0.140625 C 1.265625 -0.046875 1.441406 0 1.640625 0 C 1.734375 0 1.816406 -0.0195312 1.890625 -0.0625 C 1.972656 -0.101562 2.046875 -0.15625 2.109375 -0.21875 C 2.179688 -0.289062 2.234375 -0.367188 2.265625 -0.453125 C 2.296875 -0.535156 2.3125 -0.617188 2.3125 -0.703125 L 2.359375 -0.703125 L 2.359375 -0.203125 C 2.253906 -0.117188 2.144531 -0.0507812 2.03125 0 C 1.914062 0.0390625 1.78125 0.0625 1.625 0.0625 C 1.382812 0.0625 1.171875 0.015625 0.984375 -0.078125 C 0.804688 -0.171875 0.65625 -0.296875 0.53125 -0.453125 C 0.414062 -0.617188 0.328125 -0.804688 0.265625 -1.015625 C 0.203125 -1.222656 0.171875 -1.4375 0.171875 -1.65625 Z M 0.171875 -1.65625 "/></g></g></g><g fill="#000000" fill-opacity="1"><g transform="translate(29.184689, 53.497469)"><g><path d="M 1.125 0.0625 C 0.945312 0.0625 0.78125 0.0195312 0.625 -0.0625 C 0.476562 -0.144531 0.359375 -0.269531 0.265625 -0.4375 C 0.179688 -0.613281 0.140625 -0.828125 0.140625 -1.078125 C 0.140625 -1.328125 0.179688 -1.535156 0.265625 -1.703125 C 0.359375 -1.867188 0.476562 -1.992188 0.625 -2.078125 C 0.78125 -2.171875 0.945312 -2.21875 1.125 -2.21875 C 1.300781 -2.21875 1.46875 -2.171875 1.625 -2.078125 C 1.78125 -1.992188 1.898438 -1.867188 1.984375 -1.703125 C 2.078125 -1.535156 2.125 -1.328125 2.125 -1.078125 C 2.125 -0.828125 2.078125 -0.613281 1.984375 -0.4375 C 1.898438 -0.269531 1.78125 -0.144531 1.625 -0.0625 C 1.46875 0.0195312 1.300781 0.0625 1.125 0.0625 Z M 0.40625 -1.078125 C 0.40625 -0.828125 0.4375 -0.617188 0.5 -0.453125 C 0.570312 -0.296875 0.664062 -0.179688 0.78125 -0.109375 C 0.894531 -0.0351562 1.007812 0 1.125 0 C 1.25 0 1.363281 -0.0351562 1.46875 -0.109375 C 1.582031 -0.179688 1.675781 -0.296875 1.75 -0.453125 C 1.820312 -0.617188 1.859375 -0.828125 1.859375 -1.078125 C 1.859375 -1.328125 1.820312 -1.53125 1.75 -1.6875 C 1.675781 -1.851562 1.582031 -1.96875 1.46875 -2.03125 C 1.363281 -2.101562 1.25 -2.140625 1.125 -2.140625 C 1.007812 -2.140625 0.894531 -2.101562 0.78125 -2.03125 C 0.664062 -1.96875 0.570312 -1.851562 0.5 -1.6875 C 0.4375 -1.53125 0.40625 -1.328125 0.40625 -1.078125 Z M 0.40625 -1.078125 "/></g></g></g><g fill="#000000" fill-opacity="1"><g transform="translate(31.443873, 53.497469)"><g><path d="M 0.8125 0 L 0.0625 0 L 0.0625 -0.015625 L 0.3125 -0.140625 L 0.3125 -1.921875 L 0.078125 -1.921875 L 0.078125 -1.953125 L 0.5625 -2.21875 L 0.578125 -2.21875 L 0.578125 -1.59375 C 0.578125 -1.613281 0.585938 -1.644531 0.609375 -1.6875 C 0.628906 -1.738281 0.65625 -1.789062 0.6875 -1.84375 C 0.726562 -1.90625 0.78125 -1.960938 0.84375 -2.015625 C 0.90625 -2.078125 0.984375 -2.125 1.078125 -2.15625 C 1.179688 -2.195312 1.296875 -2.21875 1.421875 -2.21875 C 1.460938 -2.21875 1.515625 -2.207031 1.578125 -2.1875 C 1.640625 -2.175781 1.703125 -2.148438 1.765625 -2.109375 C 1.828125 -2.066406 1.878906 -2 1.921875 -1.90625 C 1.972656 -1.820312 2 -1.703125 2 -1.546875 L 2 -0.140625 L 2.25 -0.015625 L 2.25 0 L 1.5 0 L 1.5 -0.015625 L 1.734375 -0.140625 L 1.734375 -1.546875 C 1.734375 -1.609375 1.726562 -1.671875 1.71875 -1.734375 C 1.707031 -1.796875 1.6875 -1.851562 1.65625 -1.90625 C 1.625 -1.957031 1.578125 -2 1.515625 -2.03125 C 1.460938 -2.070312 1.382812 -2.09375 1.28125 -2.09375 C 1.164062 -2.09375 1.066406 -2.070312 0.984375 -2.03125 C 0.898438 -1.988281 0.832031 -1.929688 0.78125 -1.859375 C 0.726562 -1.796875 0.6875 -1.726562 0.65625 -1.65625 C 0.625 -1.59375 0.601562 -1.53125 0.59375 -1.46875 C 0.582031 -1.40625 0.578125 -1.359375 0.578125 -1.328125 L 0.578125 -0.140625 L 0.8125 -0.015625 Z M 0.8125 0 "/></g></g></g><g fill="#000000" fill-opacity="1"><g transform="translate(33.616678, 53.497469)"><g><path d="M 0 -2.796875 C 0 -2.890625 0.0351562 -2.960938 0.109375 -3.015625 C 0.179688 -3.078125 0.269531 -3.109375 0.375 -3.109375 C 0.488281 -3.109375 0.585938 -3.066406 0.671875 -2.984375 C 0.753906 -2.910156 0.796875 -2.804688 0.796875 -2.671875 C 0.796875 -2.566406 0.773438 -2.484375 0.734375 -2.421875 C 0.691406 -2.359375 0.644531 -2.300781 0.59375 -2.25 C 0.539062 -2.207031 0.484375 -2.171875 0.421875 -2.140625 L 1.140625 -2.140625 L 1.140625 -2 C 1.015625 -2.03125 0.894531 -2.050781 0.78125 -2.0625 C 0.675781 -2.070312 0.566406 -2.078125 0.453125 -2.078125 C 0.546875 -2.054688 0.617188 -2.003906 0.671875 -1.921875 C 0.734375 -1.847656 0.765625 -1.738281 0.765625 -1.59375 L 0.765625 -0.34375 C 0.765625 -0.300781 0.765625 -0.253906 0.765625 -0.203125 C 0.773438 -0.148438 0.789062 -0.109375 0.8125 -0.078125 C 0.832031 -0.046875 0.863281 -0.03125 0.90625 -0.03125 C 0.976562 -0.03125 1.035156 -0.046875 1.078125 -0.078125 C 1.128906 -0.117188 1.164062 -0.15625 1.1875 -0.1875 L 1.25 -0.1875 C 1.1875 -0.113281 1.125 -0.0507812 1.0625 0 C 1 0.0390625 0.914062 0.0625 0.8125 0.0625 C 0.707031 0.0625 0.628906 0.0234375 0.578125 -0.046875 C 0.523438 -0.117188 0.5 -0.226562 0.5 -0.375 L 0.5 -1.65625 C 0.5 -1.71875 0.492188 -1.78125 0.484375 -1.84375 C 0.484375 -1.914062 0.46875 -1.972656 0.4375 -2.015625 C 0.40625 -2.054688 0.347656 -2.078125 0.265625 -2.078125 L 0.03125 -2.078125 L 0.03125 -2.140625 L 0.234375 -2.140625 C 0.304688 -2.140625 0.363281 -2.160156 0.40625 -2.203125 C 0.457031 -2.242188 0.492188 -2.296875 0.515625 -2.359375 C 0.535156 -2.429688 0.546875 -2.503906 0.546875 -2.578125 C 0.546875 -2.671875 0.523438 -2.753906 0.484375 -2.828125 C 0.441406 -2.910156 0.367188 -2.953125 0.265625 -2.953125 C 0.203125 -2.953125 0.148438 -2.929688 0.109375 -2.890625 C 0.078125 -2.847656 0.0625 -2.800781 0.0625 -2.75 C 0.0625 -2.726562 0.0664062 -2.707031 0.078125 -2.6875 C 0.0859375 -2.664062 0.101562 -2.65625 0.125 -2.65625 C 0.15625 -2.65625 0.171875 -2.644531 0.171875 -2.625 C 0.171875 -2.613281 0.160156 -2.609375 0.140625 -2.609375 C 0.0976562 -2.609375 0.0625 -2.625 0.03125 -2.65625 C 0.0078125 -2.6875 0 -2.734375 0 -2.796875 Z M 0 -2.796875 "/></g></g></g><g fill="#000000" fill-opacity="1"><g transform="translate(34.806072, 53.497469)"><g><path d="M 0.0625 0 L 0.0625 -0.015625 L 0.3125 -0.140625 L 0.3125 -1.921875 L 0.078125 -1.921875 L 0.078125 -1.953125 L 0.5625 -2.21875 L 0.578125 -2.21875 L 0.578125 -1.640625 C 0.597656 -1.742188 0.632812 -1.835938 0.6875 -1.921875 C 0.75 -2.015625 0.828125 -2.085938 0.921875 -2.140625 C 1.015625 -2.191406 1.125 -2.21875 1.25 -2.21875 C 1.363281 -2.21875 1.457031 -2.195312 1.53125 -2.15625 C 1.613281 -2.125 1.691406 -2.078125 1.765625 -2.015625 L 1.765625 -1.46875 L 1.75 -1.46875 C 1.726562 -1.570312 1.695312 -1.660156 1.65625 -1.734375 C 1.613281 -1.816406 1.566406 -1.898438 1.515625 -1.984375 C 1.398438 -2.066406 1.285156 -2.109375 1.171875 -2.109375 C 1.054688 -2.109375 0.953125 -2.070312 0.859375 -2 C 0.773438 -1.925781 0.707031 -1.828125 0.65625 -1.703125 C 0.601562 -1.585938 0.578125 -1.460938 0.578125 -1.328125 L 0.578125 -0.140625 L 0.8125 -0.015625 L 0.8125 0 Z M 0.0625 0 "/></g></g></g><g fill="#000000" fill-opacity="1"><g transform="translate(36.606773, 53.497469)"><g><path d="M 1.125 0.0625 C 0.945312 0.0625 0.78125 0.0195312 0.625 -0.0625 C 0.476562 -0.144531 0.359375 -0.269531 0.265625 -0.4375 C 0.179688 -0.613281 0.140625 -0.828125 0.140625 -1.078125 C 0.140625 -1.328125 0.179688 -1.535156 0.265625 -1.703125 C 0.359375 -1.867188 0.476562 -1.992188 0.625 -2.078125 C 0.78125 -2.171875 0.945312 -2.21875 1.125 -2.21875 C 1.300781 -2.21875 1.46875 -2.171875 1.625 -2.078125 C 1.78125 -1.992188 1.898438 -1.867188 1.984375 -1.703125 C 2.078125 -1.535156 2.125 -1.328125 2.125 -1.078125 C 2.125 -0.828125 2.078125 -0.613281 1.984375 -0.4375 C 1.898438 -0.269531 1.78125 -0.144531 1.625 -0.0625 C 1.46875 0.0195312 1.300781 0.0625 1.125 0.0625 Z M 0.40625 -1.078125 C 0.40625 -0.828125 0.4375 -0.617188 0.5 -0.453125 C 0.570312 -0.296875 0.664062 -0.179688 0.78125 -0.109375 C 0.894531 -0.0351562 1.007812 0 1.125 0 C 1.25 0 1.363281 -0.0351562 1.46875 -0.109375 C 1.582031 -0.179688 1.675781 -0.296875 1.75 -0.453125 C 1.820312 -0.617188 1.859375 -0.828125 1.859375 -1.078125 C 1.859375 -1.328125 1.820312 -1.53125 1.75 -1.6875 C 1.675781 -1.851562 1.582031 -1.96875 1.46875 -2.03125 C 1.363281 -2.101562 1.25 -2.140625 1.125 -2.140625 C 1.007812 -2.140625 0.894531 -2.101562 0.78125 -2.03125 C 0.664062 -1.96875 0.570312 -1.851562 0.5 -1.6875 C 0.4375 -1.53125 0.40625 -1.328125 0.40625 -1.078125 Z M 0.40625 -1.078125 "/></g></g></g><g fill="#000000" fill-opacity="1"><g transform="translate(38.865957, 53.497469)"><g><path d="M 0.0625 -3.328125 L 0.578125 -3.328125 L 0.578125 -0.140625 L 0.8125 -0.015625 L 0.8125 0 L 0.0625 0 L 0.0625 -0.015625 L 0.3125 -0.140625 L 0.3125 -3.1875 L 0.0625 -3.3125 Z M 0.0625 -3.328125 "/></g></g></g><g fill="#000000" fill-opacity="1"><g transform="translate(39.743053, 53.497469)"><g/></g></g><g fill="#000000" fill-opacity="1"><g transform="translate(40.905867, 53.497469)"><g><path d="M 0.140625 -1.078125 C 0.140625 -1.222656 0.160156 -1.363281 0.203125 -1.5 C 0.242188 -1.632812 0.304688 -1.753906 0.390625 -1.859375 C 0.472656 -1.972656 0.570312 -2.0625 0.6875 -2.125 C 0.800781 -2.1875 0.9375 -2.21875 1.09375 -2.21875 C 1.289062 -2.21875 1.460938 -2.144531 1.609375 -2 L 1.609375 -3.1875 L 1.359375 -3.3125 L 1.359375 -3.328125 L 1.875 -3.328125 L 1.875 -0.140625 L 2.109375 -0.015625 L 2.109375 0 L 1.15625 0 C 0.988281 0 0.835938 -0.0234375 0.703125 -0.078125 C 0.578125 -0.140625 0.472656 -0.21875 0.390625 -0.3125 C 0.304688 -0.414062 0.242188 -0.53125 0.203125 -0.65625 C 0.160156 -0.789062 0.140625 -0.929688 0.140625 -1.078125 Z M 1.09375 -2.140625 C 0.988281 -2.140625 0.894531 -2.109375 0.8125 -2.046875 C 0.726562 -1.992188 0.65625 -1.914062 0.59375 -1.8125 C 0.53125 -1.707031 0.484375 -1.59375 0.453125 -1.46875 C 0.421875 -1.34375 0.40625 -1.210938 0.40625 -1.078125 C 0.40625 -0.898438 0.429688 -0.734375 0.484375 -0.578125 C 0.535156 -0.421875 0.617188 -0.296875 0.734375 -0.203125 C 0.847656 -0.109375 0.992188 -0.0625 1.171875 -0.0625 C 1.253906 -0.0625 1.332031 -0.0664062 1.40625 -0.078125 C 1.488281 -0.0859375 1.554688 -0.109375 1.609375 -0.140625 L 1.609375 -1.6875 C 1.609375 -1.78125 1.582031 -1.859375 1.53125 -1.921875 C 1.476562 -1.992188 1.410156 -2.046875 1.328125 -2.078125 C 1.253906 -2.117188 1.175781 -2.140625 1.09375 -2.140625 Z M 1.09375 -2.140625 "/></g></g></g><g fill="#000000" fill-opacity="1"><g transform="translate(43.078668, 53.497469)"><g><path d="M 0.140625 -1.0625 C 0.140625 -1.3125 0.1875 -1.519531 0.28125 -1.6875 C 0.375 -1.863281 0.492188 -1.992188 0.640625 -2.078125 C 0.796875 -2.171875 0.960938 -2.21875 1.140625 -2.21875 C 1.285156 -2.21875 1.414062 -2.1875 1.53125 -2.125 C 1.644531 -2.0625 1.734375 -1.96875 1.796875 -1.84375 C 1.859375 -1.726562 1.890625 -1.59375 1.890625 -1.4375 C 1.890625 -1.34375 1.863281 -1.265625 1.8125 -1.203125 C 1.769531 -1.148438 1.707031 -1.113281 1.625 -1.09375 C 1.550781 -1.070312 1.46875 -1.0625 1.375 -1.0625 L 0.40625 -1.0625 C 0.40625 -0.9375 0.414062 -0.804688 0.4375 -0.671875 C 0.46875 -0.546875 0.507812 -0.429688 0.5625 -0.328125 C 0.625 -0.234375 0.695312 -0.15625 0.78125 -0.09375 C 0.863281 -0.03125 0.96875 0 1.09375 0 C 1.1875 0 1.269531 -0.0195312 1.34375 -0.0625 C 1.425781 -0.113281 1.5 -0.175781 1.5625 -0.25 C 1.632812 -0.320312 1.691406 -0.398438 1.734375 -0.484375 C 1.785156 -0.566406 1.828125 -0.648438 1.859375 -0.734375 L 1.859375 -0.296875 C 1.785156 -0.160156 1.675781 -0.0664062 1.53125 -0.015625 C 1.394531 0.0351562 1.242188 0.0625 1.078125 0.0625 C 0.941406 0.0625 0.816406 0.0351562 0.703125 -0.015625 C 0.585938 -0.078125 0.484375 -0.160156 0.390625 -0.265625 C 0.304688 -0.367188 0.242188 -0.488281 0.203125 -0.625 C 0.160156 -0.757812 0.140625 -0.90625 0.140625 -1.0625 Z M 0.40625 -1.140625 L 1.234375 -1.140625 C 1.378906 -1.140625 1.484375 -1.175781 1.546875 -1.25 C 1.609375 -1.320312 1.640625 -1.429688 1.640625 -1.578125 C 1.640625 -1.691406 1.613281 -1.789062 1.5625 -1.875 C 1.519531 -1.957031 1.457031 -2.019531 1.375 -2.0625 C 1.289062 -2.113281 1.203125 -2.140625 1.109375 -2.140625 C 0.984375 -2.140625 0.867188 -2.101562 0.765625 -2.03125 C 0.660156 -1.96875 0.578125 -1.863281 0.515625 -1.71875 C 0.453125 -1.570312 0.414062 -1.378906 0.40625 -1.140625 Z M 0.40625 -1.140625 "/></g></g></g><g fill="#000000" fill-opacity="1"><g transform="translate(45.105287, 53.497469)"><g/></g></g><g fill="#000000" fill-opacity="1"><g transform="translate(46.268101, 53.497469)"><g><path d="M 0.8125 1.1875 L 0.0625 1.1875 L 0.0625 1.171875 L 0.3125 1.046875 L 0.3125 -1.921875 L 0.078125 -1.921875 L 0.078125 -1.953125 L 0.5625 -2.21875 L 0.578125 -2.21875 L 0.578125 -1.984375 C 0.628906 -2.035156 0.703125 -2.085938 0.796875 -2.140625 C 0.890625 -2.191406 1 -2.21875 1.125 -2.21875 C 1.28125 -2.21875 1.414062 -2.1875 1.53125 -2.125 C 1.644531 -2.0625 1.738281 -1.972656 1.8125 -1.859375 C 1.894531 -1.753906 1.953125 -1.632812 1.984375 -1.5 C 2.023438 -1.375 2.046875 -1.238281 2.046875 -1.09375 C 2.046875 -0.945312 2.023438 -0.804688 1.984375 -0.671875 C 1.941406 -0.535156 1.878906 -0.410156 1.796875 -0.296875 C 1.722656 -0.191406 1.628906 -0.101562 1.515625 -0.03125 C 1.398438 0.03125 1.269531 0.0625 1.125 0.0625 C 1 0.0625 0.890625 0.0390625 0.796875 0 C 0.710938 -0.0507812 0.640625 -0.109375 0.578125 -0.171875 L 0.578125 1.046875 L 0.8125 1.171875 Z M 0.578125 -1.859375 L 0.578125 -0.265625 C 0.640625 -0.191406 0.71875 -0.128906 0.8125 -0.078125 C 0.90625 -0.0234375 1.007812 0 1.125 0 C 1.226562 0 1.316406 -0.03125 1.390625 -0.09375 C 1.472656 -0.15625 1.539062 -0.238281 1.59375 -0.34375 C 1.65625 -0.457031 1.695312 -0.578125 1.71875 -0.703125 C 1.75 -0.835938 1.765625 -0.96875 1.765625 -1.09375 C 1.765625 -1.226562 1.75 -1.359375 1.71875 -1.484375 C 1.695312 -1.617188 1.660156 -1.734375 1.609375 -1.828125 C 1.554688 -1.929688 1.488281 -2.007812 1.40625 -2.0625 C 1.320312 -2.113281 1.226562 -2.140625 1.125 -2.140625 C 0.988281 -2.140625 0.878906 -2.109375 0.796875 -2.046875 C 0.710938 -1.992188 0.640625 -1.929688 0.578125 -1.859375 Z M 0.578125 -1.859375 "/></g></g></g><g fill="#000000" fill-opacity="1"><g transform="translate(48.440902, 53.497469)"><g><path d="M 0.0625 -3.328125 L 0.578125 -3.328125 L 0.578125 -0.140625 L 0.8125 -0.015625 L 0.8125 0 L 0.0625 0 L 0.0625 -0.015625 L 0.3125 -0.140625 L 0.3125 -3.1875 L 0.0625 -3.3125 Z M 0.0625 -3.328125 "/></g></g></g><g fill="#000000" fill-opacity="1"><g transform="translate(49.317998, 53.497469)"><g><path d="M 0.140625 -0.53125 C 0.140625 -0.71875 0.195312 -0.859375 0.3125 -0.953125 C 0.4375 -1.046875 0.601562 -1.09375 0.8125 -1.09375 L 1.59375 -1.09375 L 1.59375 -1.546875 C 1.59375 -1.648438 1.578125 -1.742188 1.546875 -1.828125 C 1.515625 -1.921875 1.460938 -1.992188 1.390625 -2.046875 C 1.328125 -2.109375 1.234375 -2.140625 1.109375 -2.140625 C 1.015625 -2.140625 0.925781 -2.128906 0.84375 -2.109375 C 0.757812 -2.085938 0.660156 -2.046875 0.546875 -1.984375 C 0.503906 -1.898438 0.457031 -1.816406 0.40625 -1.734375 C 0.363281 -1.660156 0.332031 -1.578125 0.3125 -1.484375 L 0.296875 -1.484375 L 0.296875 -2.03125 C 0.359375 -2.050781 0.429688 -2.078125 0.515625 -2.109375 C 0.597656 -2.140625 0.6875 -2.164062 0.78125 -2.1875 C 0.875 -2.207031 0.96875 -2.21875 1.0625 -2.21875 C 1.207031 -2.21875 1.335938 -2.1875 1.453125 -2.125 C 1.578125 -2.070312 1.671875 -1.992188 1.734375 -1.890625 C 1.804688 -1.796875 1.84375 -1.671875 1.84375 -1.515625 L 1.84375 -0.140625 L 2.078125 -0.015625 L 2.078125 0 L 1.59375 0 L 1.59375 -0.421875 C 1.550781 -0.335938 1.492188 -0.257812 1.421875 -0.1875 C 1.359375 -0.113281 1.28125 -0.0507812 1.1875 0 C 1.09375 0.0390625 0.984375 0.0625 0.859375 0.0625 C 0.734375 0.0625 0.613281 0.0390625 0.5 0 C 0.394531 -0.0507812 0.304688 -0.117188 0.234375 -0.203125 C 0.171875 -0.296875 0.140625 -0.40625 0.140625 -0.53125 Z M 0.890625 -1.03125 C 0.773438 -1.03125 0.679688 -1.003906 0.609375 -0.953125 C 0.535156 -0.898438 0.484375 -0.835938 0.453125 -0.765625 C 0.421875 -0.703125 0.40625 -0.632812 0.40625 -0.5625 C 0.40625 -0.46875 0.425781 -0.378906 0.46875 -0.296875 C 0.507812 -0.210938 0.570312 -0.144531 0.65625 -0.09375 C 0.738281 -0.0390625 0.84375 -0.0195312 0.96875 -0.03125 C 1.113281 -0.0390625 1.238281 -0.09375 1.34375 -0.1875 C 1.457031 -0.289062 1.539062 -0.425781 1.59375 -0.59375 L 1.59375 -1.03125 Z M 0.890625 -1.03125 "/></g></g></g><g fill="#000000" fill-opacity="1"><g transform="translate(51.457577, 53.497469)"><g><path d="M 0.03125 0.421875 C 0.03125 0.296875 0.0546875 0.191406 0.109375 0.109375 C 0.160156 0.0234375 0.226562 -0.0390625 0.3125 -0.09375 C 0.394531 -0.15625 0.484375 -0.207031 0.578125 -0.25 C 0.679688 -0.289062 0.785156 -0.320312 0.890625 -0.34375 C 0.992188 -0.363281 1.085938 -0.382812 1.171875 -0.40625 C 1.265625 -0.425781 1.34375 -0.453125 1.40625 -0.484375 C 1.351562 -0.472656 1.300781 -0.460938 1.25 -0.453125 C 1.207031 -0.441406 1.160156 -0.4375 1.109375 -0.4375 C 0.921875 -0.4375 0.75 -0.46875 0.59375 -0.53125 C 0.445312 -0.601562 0.332031 -0.703125 0.25 -0.828125 C 0.164062 -0.953125 0.125 -1.109375 0.125 -1.296875 C 0.125 -1.453125 0.148438 -1.582031 0.203125 -1.6875 C 0.265625 -1.789062 0.34375 -1.875 0.4375 -1.9375 C 0.53125 -2.007812 0.632812 -2.0625 0.75 -2.09375 C 0.875 -2.125 1.007812 -2.140625 1.15625 -2.140625 L 2.109375 -2.140625 L 2.109375 -2 L 1.5 -2.078125 C 1.6875 -2.023438 1.828125 -1.929688 1.921875 -1.796875 C 2.023438 -1.660156 2.078125 -1.492188 2.078125 -1.296875 C 2.078125 -1.148438 2.050781 -1.023438 2 -0.921875 C 1.957031 -0.816406 1.894531 -0.726562 1.8125 -0.65625 C 1.726562 -0.582031 1.628906 -0.519531 1.515625 -0.46875 C 1.410156 -0.414062 1.300781 -0.367188 1.1875 -0.328125 C 1.082031 -0.285156 0.972656 -0.242188 0.859375 -0.203125 C 0.753906 -0.160156 0.660156 -0.109375 0.578125 -0.046875 C 0.492188 0.00390625 0.425781 0.0664062 0.375 0.140625 C 0.332031 0.210938 0.3125 0.304688 0.3125 0.421875 C 0.3125 0.535156 0.335938 0.632812 0.390625 0.71875 C 0.441406 0.8125 0.507812 0.890625 0.59375 0.953125 C 0.675781 1.015625 0.769531 1.0625 0.875 1.09375 C 0.988281 1.125 1.097656 1.140625 1.203125 1.140625 C 1.335938 1.140625 1.460938 1.113281 1.578125 1.0625 C 1.691406 1.019531 1.78125 0.945312 1.84375 0.84375 C 1.914062 0.75 1.953125 0.625 1.953125 0.46875 C 1.953125 0.3125 1.898438 0.179688 1.796875 0.078125 C 1.703125 -0.015625 1.5625 -0.0625 1.375 -0.0625 C 1.257812 -0.0625 1.15625 -0.0351562 1.0625 0.015625 C 0.976562 0.078125 0.9375 0.148438 0.9375 0.234375 C 0.9375 0.273438 0.941406 0.304688 0.953125 0.328125 C 0.960938 0.347656 0.96875 0.375 0.96875 0.40625 C 0.96875 0.457031 0.941406 0.484375 0.890625 0.484375 C 0.859375 0.484375 0.832031 0.46875 0.8125 0.4375 C 0.800781 0.414062 0.796875 0.390625 0.796875 0.359375 C 0.796875 0.222656 0.851562 0.101562 0.96875 0 C 1.082031 -0.09375 1.25 -0.140625 1.46875 -0.140625 C 1.613281 -0.140625 1.742188 -0.109375 1.859375 -0.046875 C 1.972656 0.00390625 2.0625 0.078125 2.125 0.171875 C 2.1875 0.265625 2.21875 0.367188 2.21875 0.484375 C 2.21875 0.609375 2.1875 0.71875 2.125 0.8125 C 2.070312 0.90625 1.992188 0.984375 1.890625 1.046875 C 1.796875 1.109375 1.6875 1.148438 1.5625 1.171875 C 1.445312 1.203125 1.320312 1.21875 1.1875 1.21875 C 1.050781 1.21875 0.914062 1.195312 0.78125 1.15625 C 0.644531 1.125 0.519531 1.070312 0.40625 1 C 0.289062 0.9375 0.195312 0.851562 0.125 0.75 C 0.0625 0.65625 0.03125 0.546875 0.03125 0.421875 Z M 1.109375 -2.078125 C 0.972656 -2.078125 0.847656 -2.046875 0.734375 -1.984375 C 0.628906 -1.929688 0.546875 -1.84375 0.484375 -1.71875 C 0.429688 -1.601562 0.40625 -1.460938 0.40625 -1.296875 C 0.40625 -1.117188 0.429688 -0.972656 0.484375 -0.859375 C 0.546875 -0.742188 0.628906 -0.65625 0.734375 -0.59375 C 0.847656 -0.53125 0.972656 -0.5 1.109375 -0.5 C 1.242188 -0.5 1.363281 -0.53125 1.46875 -0.59375 C 1.570312 -0.65625 1.65625 -0.742188 1.71875 -0.859375 C 1.78125 -0.972656 1.8125 -1.117188 1.8125 -1.296875 C 1.8125 -1.460938 1.78125 -1.601562 1.71875 -1.71875 C 1.65625 -1.84375 1.570312 -1.929688 1.46875 -1.984375 C 1.363281 -2.046875 1.242188 -2.078125 1.109375 -2.078125 Z M 1.109375 -2.078125 "/></g></g></g><g fill="#000000" fill-opacity="1"><g transform="translate(53.67689, 53.497469)"><g><path d="M 0.140625 -0.53125 C 0.140625 -0.71875 0.195312 -0.859375 0.3125 -0.953125 C 0.4375 -1.046875 0.601562 -1.09375 0.8125 -1.09375 L 1.59375 -1.09375 L 1.59375 -1.546875 C 1.59375 -1.648438 1.578125 -1.742188 1.546875 -1.828125 C 1.515625 -1.921875 1.460938 -1.992188 1.390625 -2.046875 C 1.328125 -2.109375 1.234375 -2.140625 1.109375 -2.140625 C 1.015625 -2.140625 0.925781 -2.128906 0.84375 -2.109375 C 0.757812 -2.085938 0.660156 -2.046875 0.546875 -1.984375 C 0.503906 -1.898438 0.457031 -1.816406 0.40625 -1.734375 C 0.363281 -1.660156 0.332031 -1.578125 0.3125 -1.484375 L 0.296875 -1.484375 L 0.296875 -2.03125 C 0.359375 -2.050781 0.429688 -2.078125 0.515625 -2.109375 C 0.597656 -2.140625 0.6875 -2.164062 0.78125 -2.1875 C 0.875 -2.207031 0.96875 -2.21875 1.0625 -2.21875 C 1.207031 -2.21875 1.335938 -2.1875 1.453125 -2.125 C 1.578125 -2.070312 1.671875 -1.992188 1.734375 -1.890625 C 1.804688 -1.796875 1.84375 -1.671875 1.84375 -1.515625 L 1.84375 -0.140625 L 2.078125 -0.015625 L 2.078125 0 L 1.59375 0 L 1.59375 -0.421875 C 1.550781 -0.335938 1.492188 -0.257812 1.421875 -0.1875 C 1.359375 -0.113281 1.28125 -0.0507812 1.1875 0 C 1.09375 0.0390625 0.984375 0.0625 0.859375 0.0625 C 0.734375 0.0625 0.613281 0.0390625 0.5 0 C 0.394531 -0.0507812 0.304688 -0.117188 0.234375 -0.203125 C 0.171875 -0.296875 0.140625 -0.40625 0.140625 -0.53125 Z M 0.890625 -1.03125 C 0.773438 -1.03125 0.679688 -1.003906 0.609375 -0.953125 C 0.535156 -0.898438 0.484375 -0.835938 0.453125 -0.765625 C 0.421875 -0.703125 0.40625 -0.632812 0.40625 -0.5625 C 0.40625 -0.46875 0.425781 -0.378906 0.46875 -0.296875 C 0.507812 -0.210938 0.570312 -0.144531 0.65625 -0.09375 C 0.738281 -0.0390625 0.84375 -0.0195312 0.96875 -0.03125 C 1.113281 -0.0390625 1.238281 -0.09375 1.34375 -0.1875 C 1.457031 -0.289062 1.539062 -0.425781 1.59375 -0.59375 L 1.59375 -1.03125 Z M 0.890625 -1.03125 "/></g></g></g><g fill="#000000" fill-opacity="1"><g transform="translate(55.816469, 53.497469)"><g><path d="M 0.140625 -1.578125 C 0.140625 -1.679688 0.160156 -1.773438 0.203125 -1.859375 C 0.253906 -1.941406 0.320312 -2.007812 0.40625 -2.0625 C 0.488281 -2.113281 0.582031 -2.148438 0.6875 -2.171875 C 0.789062 -2.203125 0.898438 -2.21875 1.015625 -2.21875 C 1.109375 -2.21875 1.203125 -2.207031 1.296875 -2.1875 C 1.390625 -2.164062 1.476562 -2.140625 1.5625 -2.109375 C 1.644531 -2.078125 1.71875 -2.050781 1.78125 -2.03125 L 1.78125 -1.46875 L 1.765625 -1.46875 C 1.765625 -1.53125 1.753906 -1.59375 1.734375 -1.65625 C 1.710938 -1.71875 1.6875 -1.773438 1.65625 -1.828125 C 1.625 -1.890625 1.59375 -1.9375 1.5625 -1.96875 C 1.476562 -2.03125 1.394531 -2.070312 1.3125 -2.09375 C 1.226562 -2.125 1.128906 -2.140625 1.015625 -2.140625 C 0.890625 -2.140625 0.773438 -2.125 0.671875 -2.09375 C 0.578125 -2.0625 0.5 -2.007812 0.4375 -1.9375 C 0.375 -1.863281 0.34375 -1.769531 0.34375 -1.65625 C 0.34375 -1.550781 0.367188 -1.46875 0.421875 -1.40625 C 0.484375 -1.351562 0.554688 -1.3125 0.640625 -1.28125 C 0.734375 -1.257812 0.832031 -1.242188 0.9375 -1.234375 C 1.039062 -1.222656 1.144531 -1.207031 1.25 -1.1875 C 1.351562 -1.164062 1.453125 -1.132812 1.546875 -1.09375 C 1.640625 -1.0625 1.710938 -1.003906 1.765625 -0.921875 C 1.816406 -0.847656 1.847656 -0.75 1.859375 -0.625 C 1.859375 -0.507812 1.832031 -0.410156 1.78125 -0.328125 C 1.726562 -0.242188 1.65625 -0.171875 1.5625 -0.109375 C 1.476562 -0.0546875 1.382812 -0.015625 1.28125 0.015625 C 1.1875 0.046875 1.085938 0.0625 0.984375 0.0625 C 0.804688 0.0625 0.644531 0.0351562 0.5 -0.015625 C 0.363281 -0.0664062 0.25 -0.125 0.15625 -0.1875 L 0.15625 -0.78125 L 0.171875 -0.78125 C 0.191406 -0.613281 0.238281 -0.472656 0.3125 -0.359375 C 0.394531 -0.242188 0.492188 -0.15625 0.609375 -0.09375 C 0.722656 -0.03125 0.847656 0 0.984375 0 C 1.078125 0 1.171875 -0.0195312 1.265625 -0.0625 C 1.367188 -0.101562 1.445312 -0.160156 1.5 -0.234375 C 1.5625 -0.316406 1.59375 -0.40625 1.59375 -0.5 C 1.59375 -0.601562 1.566406 -0.679688 1.515625 -0.734375 C 1.460938 -0.796875 1.394531 -0.84375 1.3125 -0.875 C 1.226562 -0.90625 1.132812 -0.925781 1.03125 -0.9375 C 0.925781 -0.957031 0.816406 -0.976562 0.703125 -1 C 0.597656 -1.019531 0.503906 -1.050781 0.421875 -1.09375 C 0.335938 -1.132812 0.269531 -1.191406 0.21875 -1.265625 C 0.164062 -1.335938 0.140625 -1.441406 0.140625 -1.578125 Z M 0.140625 -1.578125 "/></g></g></g></svg>